<svg xmlns="http://www.w3.org/2000/svg" viewBox="0 0 64 64">
  <defs>
    <linearGradient id="g" x1="0%" x2="100%" y1="0%" y2="100%">
      <stop offset="0%" stop-color="#0f766e" />
      <stop offset="100%" stop-color="#1d9d93" />
    </linearGradient>
  </defs>
  <rect x="4" y="4" width="56" height="56" rx="14" fill="url(#g)" />
  <path
    d="M22 22c0-3.3 2.7-6 6-6 1.9 0 3.7.9 4.8 2.4A6 6 0 0 1 37.6 16c3.3 0 6 2.7 6 6 0 5.7-5.1 9.3-10.8 13.7l-.8.6-.8-.6C27.1 31.3 22 27.7 22 22z"
    fill="#fff"
  />
  <rect x="30" y="25" width="4" height="10" rx="1" fill="#0f766e" />
  <rect x="27" y="28" width="10" height="4" rx="1" fill="#0f766e" />
</svg>
